<?xml version="1.0" encoding="UTF-8"?>
<svg viewBox="0 0 327 290" version="1.1" xmlns="http://www.w3.org/2000/svg" xmlns:xlink="http://www.w3.org/1999/xlink">
    <g id="Page-1" stroke="none" stroke-width="1" fill="none" fill-rule="evenodd">
        <path d="M200.0006,272.2716 C181.4426,272.2716 180.2596,245.8946 180.2596,233.3946 C180.2596,222.0916 181.1056,211.2286 182.5256,200.8446 C183.3346,201.0366 184.1446,201.2306 184.9536,201.4256 C217.4746,212.2736 222.1256,272.2716 200.0006,272.2716 M57.1836,247.9656 C57.1836,211.5046 73.6336,196.0896 98.3566,191.8056 C98.3586,192.3606 98.3636,192.8986 98.3636,193.4596 C98.3636,283.0146 57.1836,292.4646 57.1836,247.9656 M186.9466,176.6816 C202.5596,107.7806 236.6326,65.2486 189.0616,63.7516 C170.4626,95.6136 156.0246,136.3716 149.5876,174.3106 C145.7696,174.2026 141.9566,174.1396 138.1566,174.1396 C136.7636,174.1396 135.3896,174.1476 134.0286,174.1626 C132.7576,149.6066 123.9436,133.5396 113.2676,123.6566 C135.6526,108.7196 139.7536,77.5696 139.7536,62.6126 C139.7536,48.0776 128.9676,0.0006 86.1916,0.0006 C43.4166,0.0006 -0.0004,39.2776 -0.0004,123.6606 C-0.0004,182.5666 22.9836,178.0936 43.6606,171.0586 C40.4466,159.1496 37.7816,141.8226 37.7816,117.0856 C37.7816,54.7866 59.7896,14.4016 80.1396,14.4016 C100.4886,14.4016 105.8226,47.3876 105.8226,65.1036 C105.8226,80.2316 104.4216,101.3266 96.7476,113.2376 C91.3586,111.1336 86.1966,110.1986 81.9236,110.1986 C68.8076,110.1986 66.4456,131.9996 83.2156,131.9996 C86.3966,131.9996 89.3996,131.7886 92.2396,131.3976 C95.3336,140.8686 97.3906,155.7276 98.0916,176.5906 C38.3676,184.7416 21.8356,212.1566 21.8356,242.2016 C21.8356,303.9466 128.1676,322.7636 133.9456,191.6396 C138.2126,192.1216 142.5726,192.7396 147.0066,193.4676 C141.9776,244.8216 153.9706,286.6716 193.5946,286.6716 C252.1126,286.6716 258.5456,234.7576 226.4546,211.6296 C247.4236,216.5966 267.1046,220.4766 283.1946,220.4766 C315.0386,220.4766 324.9216,203.1066 326.2776,178.2326 C306.8606,194.8566 249.4436,182.4626 186.9466,176.6816" fill="currentColor"></path>
    </g>
</svg>
